<svg xmlns="http://www.w3.org/2000/svg" viewBox="0 0 175.3 76">
  <style>.st0{fill:#fff}.st1{fill:#00926c}.st2{fill:#82807d}</style>
  <path class="st0" d="M6.8 10.2c.2-.3.5-.6.9-.8.3-.2.7-.3 1.1-.3.4 0 .8.1 1.2.3.3.2.6.5.8.8l6.6 13.2c.2.3.3.7.3 1.1 0 .6-.3 1.2-.7 1.5-.4.4-1 .6-1.6.6-.4 0-.8-.1-1.1-.3-.4-.2-.6-.5-.8-.9l-4.6-9.2-4.6 9.1c-.2.4-.5.7-.8.9-.3.2-.7.3-1.1.3-.6 0-1.2-.2-1.6-.6-.5-.3-.8-.9-.8-1.5 0-.4.1-.7.3-1.1l6.5-13.1zM32 14.6c0-.7-.2-1.4-.6-1.9-.3-.4-.5-.8-.5-1.3 0-.6.3-1.2.7-1.6.4-.4 1-.7 1.6-.7.7 0 1.3.3 1.6.9.1.1.1.1.2.1l.2.2c.7-.5 1.5-.8 2.3-1 .9-.3 1.9-.4 2.9-.4 1.6 0 3.1.4 4.5 1.1 1.3.7 2.4 1.8 3.1 3.1.7 1.4 1.1 2.9 1.1 4.5v6.8c0 .6-.2 1.2-.6 1.6-.4.4-.9.6-1.5.6s-1.2-.2-1.6-.6c-.5-.4-.7-1-.7-1.6v-6.8c0-1.2-.4-2.3-1.2-3.1-.8-.8-1.9-1.3-3.1-1.2-1.1 0-2.2.4-3 1.2-.7.9-1.1 2-1.1 3.1v6.8c0 .6-.2 1.2-.6 1.6-.4.4-1 .6-1.5.6-.6 0-1.1-.2-1.6-.6-.4-.4-.7-1-.6-1.6v-9.8zM66.9 25.6c-1.2-.8-2.2-1.9-2.8-3.2-.7-1.5-1-3.1-1-4.7 0-1.5.3-3.1 1-4.4.6-1.3 1.6-2.4 2.9-3.1 1.3-.8 2.8-1.2 4.3-1.2 1.3 0 2.6.2 3.9.6V2.2c0-.6.2-1.2.6-1.6.4-.4 1-.6 1.5-.6.6 0 1.1.2 1.5.6.5.4.7 1 .7 1.6v19.1c0 .7.2 1.4.6 1.9.3.4.4.9.5 1.3 0 .6-.3 1.1-.7 1.5-.4.4-1 .6-1.6.6-.7 0-1.3-.3-1.7-.8-.1-.2-.3-.3-.4-.5-.7.5-1.5.8-2.3 1-.9.2-1.8.4-2.6.4-1.5.1-3.1-.3-4.4-1.1zm7.3-4.4c.7-1 1-2.3.9-3.5.1-1.1-.3-2.2-.9-3.1-.7-.8-1.8-1.3-2.9-1.2-1.1-.1-2.1.3-2.9 1.1-.7.9-1 2-.9 3.1 0 3.2 1.3 4.7 3.8 4.7 1.1.2 2.2-.2 2.9-1.1zM95.2 26c-.4-.5-.6-1-.6-1.6 0-.6.2-1.1.6-1.6.4-.4 1-.6 1.6-.5l2.9.4v-9.4l-2.4.4c-.6.1-1.2-.1-1.6-.5-.4-.4-.6-1-.6-1.6 0-.6.2-1.2.6-1.6.4-.5 1-.7 1.6-.7h3.7c.7-.1 1.5.2 2.1.6.4.4.7 1 .7 1.7.4-.7.9-1.3 1.5-1.8.8-.5 1.7-.8 2.6-.7.7 0 1.3.1 2 .2.4.1.8.3 1.2.6.3.3.7.6 1 1 .8.8.8 2.2 0 3l-.1.1c-.4.4-1 .7-1.6.7-.4 0-.8-.1-1.1-.4 0 0-.3-.2-.7-.4-.5-.3-1-.4-1.6-.4-.6 0-1.1.2-1.5.6-.4.4-.8.9-1 1.5-.2.5-.3 1.1-.3 1.7v5.4l4-.4c.6-.1 1.2.1 1.6.6.4.4.6 1 .6 1.6 0 .6-.2 1.2-.6 1.6-.4.5-1 .7-1.6.7H96.8c-.6-.1-1.2-.4-1.6-.8zM130.4 25.7c-1.3-.7-2.4-1.9-3.1-3.2-1.4-2.9-1.4-6.3 0-9.2.7-1.3 1.8-2.4 3.1-3.1 1.4-.8 3-1.2 4.6-1.1 1.6 0 3.2.3 4.6 1.1 1.3.7 2.4 1.7 3.1 2.9.7 1.3 1.1 2.8 1.1 4.4 0 .6-.2 1.2-.6 1.6-.4.4-1 .7-1.6.7h-10.8c.6 1.9 2 2.8 4.2 2.8 1 .1 2-.1 3-.4.4-.2.8-.4 1.1-.7.1-.1.2-.3.3-.4.3-.5.9-.8 1.5-.7.6 0 1.2.2 1.8.6.5.3.8.9.8 1.4 0 .3-.1.6-.2.9-.7 1.3-1.9 2.4-3.3 2.9-1.6.6-3.3.9-4.9.8-1.7-.1-3.3-.5-4.7-1.3zm8.6-9.6c-.6-1.7-2.2-2.8-4-2.7-.9 0-1.7.2-2.4.7-.8.5-1.4 1.2-1.8 2h8.2z"/>
  <path class="st1" d="M.3 42.2c-.2-.3-.3-.7-.3-1.1 0-.6.3-1.2.7-1.5.4-.4 1-.6 1.6-.6.4 0 .8.1 1.1.3.4.2.6.5.8.9l4.6 9.1 4.6-9.2c.2-.4.5-.7.8-.9.3-.2.7-.3 1.1-.3.6 0 1.2.2 1.6.6.5.4.7.9.7 1.5 0 .4-.1.7-.3 1.1l-6.6 13.2c-.2.4-.5.6-.8.8-.4.2-.8.3-1.2.3-.4 0-.8-.1-1.1-.3-.3-.1-.6-.4-.8-.8L.3 42.2zM38.4 40.1c.2-.4.5-.7.8-.9.3-.2.7-.3 1.1-.3.4 0 .8.1 1.2.3.3.2.6.5.8.8l6.6 13.2c.2.3.3.7.3 1.1 0 .6-.3 1.2-.7 1.5-.4.4-1 .6-1.6.6-.4 0-.8-.1-1.1-.3-.4-.2-.6-.5-.8-.9L40.4 46l-4.6 9.1c-.2.4-.5.7-.8.9-.3.2-.7.3-1.1.3-.6 0-1.2-.2-1.6-.6-.5-.4-.7-.9-.7-1.5 0-.4.1-.7.3-1.1l6.5-13zM63.6 44.4c0-.7-.2-1.4-.6-1.9-.3-.4-.5-.8-.5-1.3 0-.6.3-1.2.7-1.6.4-.4 1-.7 1.6-.7.7 0 1.3.3 1.6.9.1.1.1.1.2.1l.2.2c.7-.5 1.5-.8 2.3-1 .9-.3 1.9-.4 2.9-.4 1.6 0 3.1.4 4.5 1.1 1.3.7 2.4 1.8 3.1 3.1.7 1.4 1.1 2.9 1.1 4.5v6.8c0 .6-.2 1.2-.6 1.6-.4.4-.9.6-1.5.6s-1.2-.2-1.6-.6c-.5-.4-.7-1-.7-1.6v-6.8c0-1.2-.4-2.3-1.2-3.1-.8-.8-1.9-1.3-3.1-1.2-1.1 0-2.2.4-3 1.2-.7.9-1.1 2-1.1 3.1v6.8c0 .6-.2 1.2-.6 1.6-.4.4-1 .6-1.5.6-.6 0-1.1-.2-1.6-.6-.4-.4-.7-1-.6-1.6v-9.8zM98.4 55.5c-1.2-.8-2.2-1.9-2.8-3.2-.7-1.5-1-3.1-1-4.7 0-1.5.3-3.1 1-4.4.6-1.3 1.6-2.4 2.9-3.1 1.3-.8 2.8-1.2 4.3-1.1 1.3 0 2.6.2 3.9.6V32c0-.6.2-1.2.6-1.6.4-.4 1-.6 1.5-.6.6 0 1.1.2 1.5.6.5.4.7 1 .7 1.6v19.1c0 .7.2 1.4.6 1.9.3.4.4.9.5 1.3 0 .6-.3 1.1-.7 1.5-.4.4-1 .6-1.6.6-.7 0-1.3-.3-1.7-.8-.1-.2-.3-.3-.4-.5-.7.5-1.5.8-2.3 1-.9.2-1.8.4-2.6.4-1.5.2-3-.2-4.4-1zm7.3-4.5c.7-1 1-2.3.9-3.5.1-1.1-.3-2.2-.9-3.1-.7-.8-1.8-1.3-2.9-1.2-1.1-.1-2.1.3-2.9 1.1-.7.9-1 2-.9 3.1 0 3.2 1.3 4.7 3.8 4.7 1.2.3 2.2-.2 2.9-1.1zM133 40.1c.2-.4.5-.7.8-.9.3-.2.7-.3 1.1-.3.4 0 .8.1 1.2.3.3.2.6.5.8.8l6.6 13.2c.2.3.3.7.3 1.1 0 .6-.3 1.2-.7 1.5-.4.4-1 .6-1.6.6-.4 0-.8-.1-1.1-.3-.4-.2-.6-.5-.8-.9L135 46l-4.6 9.1c-.2.4-.5.7-.8.9-.3.2-.7.3-1.1.3-.6 0-1.2-.2-1.6-.6-.5-.4-.7-.9-.7-1.5 0-.4.1-.7.3-1.1l6.5-13zM158.4 55.8c-.4-.4-.6-1-.6-1.6 0-.6.2-1.1.6-1.6.4-.4 1-.6 1.6-.6l4.6.4V33.8l-4.7.4c-.6.1-1.2-.2-1.6-.6-.4-.4-.6-1-.6-1.6 0-.6.2-1.1.6-1.6.4-.5 1-.7 1.6-.7h6.8c.6 0 1.2.2 1.6.6.4.4.7 1 .7 1.5v20.5l4-.4c.6-.1 1.2.1 1.6.6.4.4.6 1 .6 1.6 0 .6-.2 1.2-.6 1.6-.4.5-1 .7-1.6.7h-13c-.6.2-1.2-.1-1.6-.6z"/>
  <path class="st2" d="M1.2 75.7L0 69.3c0-.2.1-.4.3-.4s.4.1.4.3l1 5 1.2-4.1c0-.2.2-.3.4-.2.1 0 .2.1.2.2l1.2 4.1 1-5c0-.2.2-.3.4-.3s.3.2.3.4l-1.2 6.3c0 .3-.2.4-.4.4-.1 0-.2-.1-.3-.2l-1.4-4.3-1.3 4.3c0 .1-.2.2-.3.2-.2-.1-.2-.2-.3-.3zM12.8 75.5v-6.2c0-.2.2-.4.4-.4h4.2c.2 0 .4.1.4.3s-.1.4-.3.4h-4.1v2.5h2.9c.2 0 .3.2.3.4s-.1.3-.3.3h-2.9v2.5h4c.2 0 .4.1.4.3s-.1.4-.3.4h-4.3c-.2 0-.4-.2-.4-.5zM24.8 75.6v-6.3c0-.2.2-.4.4-.4h2.4c1.5 2 1.7 4.8.4 7h-2.8c-.2.1-.4-.1-.4-.3zm2.7-3.5c.7 0 1.2-.6 1.2-1.2 0-.7-.6-1.2-1.2-1.2h-2v2.5h2zm.4 3.2c.7 0 1.2-.6 1.2-1.2 0-.7-.5-1.2-1.2-1.2h-2.4v2.5h2.4zM54.1 72.5c0 2.1-.9 3.5-2.9 3.5H49c-.2 0-.3-.1-.3-.3v-6.3c0-.2.2-.3.3-.3h2.2c2-.2 2.9 1.3 2.9 3.4zm-.7 0c0-1.7-.6-2.8-2.2-2.8h-1.8v5.7h1.8c1.6-.1 2.2-1.3 2.2-2.9zM61 75.5v-6.2c0-.2.2-.4.4-.4h4.2c.2 0 .4.1.4.3s-.1.4-.3.4h-4.1v2.5h2.9c.2 0 .3.2.3.4s-.1.3-.3.3h-2.9v2.5h4c.2 0 .4.1.4.3s-.1.4-.3.4h-4.3c-.2 0-.4-.2-.4-.5zM72.8 69.4c-.1-.2 0-.4.2-.5.2-.1.4 0 .5.2l2 5.5 2-5.5c.1-.2.3-.3.5-.2.2.1.3.3.2.5l-2.4 6.3c-.1.2-.3.3-.4.2-.1 0-.2-.1-.2-.2l-2.4-6.3zM85.1 75.5v-6.2c0-.2.2-.4.4-.4h4.2c.2 0 .3.2.3.4s-.1.3-.3.3h-4v2.5h2.9c.2 0 .4.1.4.3s-.1.4-.3.4h-3v2.5h4c.2 0 .3.2.3.4s-.1.3-.3.3h-4.2c-.2 0-.4-.2-.4-.5zM97.1 75.6v-6.3c0-.2.2-.3.4-.3s.3.1.3.3v6h4c.2 0 .3.2.3.4s-.1.3-.3.3h-4.3c-.2 0-.4-.2-.4-.4zM108.7 72.4c0-2 1.1-3.6 3-3.6s3 1.6 3 3.6-1.1 3.6-3 3.6-3-1.6-3-3.6zm5.3 0c0-1.7-.8-2.9-2.3-2.9-1.6 0-2.4 1.3-2.4 2.9 0 1.7.8 2.9 2.4 2.9s2.3-1.2 2.3-2.9zM121.2 69.3c0-.2.2-.3.3-.3h1.9c1.6 0 2.9.7 2.9 2.2s-1.2 2.2-2.9 2.2h-1.5v2.3c0 .2-.2.3-.3.3s-.3-.2-.3-.3v-6.4zm2.2 3.3c1.3 0 2.2-.4 2.2-1.5s-1-1.5-2.2-1.5h-1.5v3h1.5zM133.3 69.3c0-.2.2-.4.3-.4.1 0 .2.1.3.2l1.9 3.5 1.9-3.5c.1-.2.3-.2.5-.1.1.1.2.2.2.3v6.3c0 .2-.2.3-.4.3s-.3-.1-.3-.3v-4.9l-1.5 2.7c-.1.2-.3.2-.4.2-.1 0-.1-.1-.2-.2l-1.5-2.8v5c0 .2-.2.3-.4.3s-.3-.1-.3-.3l-.1-6.3zM145.3 75.5v-6.2c0-.2.2-.4.4-.4h4.2c.2 0 .4.1.4.3s-.1.4-.3.4h-4.1v2.5h2.9c.2 0 .3.2.3.4s-.1.3-.3.3H146v2.5h4c.2 0 .4.1.4.3s-.1.4-.3.4h-4.3c-.3 0-.5-.2-.5-.5zM158.1 70.5v5.2c0 .2-.2.3-.4.3s-.3-.1-.3-.3v-6.3c0-.2.2-.4.4-.3.1 0 .2 0 .3.1l3.7 5.4v-5.2c0-.2.2-.3.4-.3s.3.1.3.3v6.3c0 .2-.2.4-.4.3-.1 0-.2 0-.3-.1l-3.7-5.4zM171.6 69.6l-2.3.1c-.2 0-.3-.2-.3-.4s.1-.3.3-.3h5.3c.2 0 .4.1.4.3s-.1.4-.3.4h-.1l-2.3-.1v6c0 .2-.2.3-.4.3s-.3-.1-.3-.3v-6z"/>
</svg>
