<svg xmlns="http://www.w3.org/2000/svg" viewBox="0 0 1080 1080" title="Logo do site andrevandal.dev">
  <path fill="#fff" d="M0 0h1080v1080H0z"/>
  <path fill="#00926c" d="M579 400a56 56 0 01-7-27c0-16 7-30 19-40s26-16 41-16a50 50 0 0128 8 57 57 0 0121 24l116 233 117-235a57 57 0 0121-24 50 50 0 0127-8 60 60 0 0142 17c12 10 19 24 19 39 0 9-3 19-7 27L848 734a56 56 0 01-51 30 55 55 0 01-28-8c-9-5-16-13-21-22z" data-name="Caminho 1"/>
  <path fill="#0d2936" d="M233 346a51 51 0 0120-22c9-5 19-8 29-8 11 0 21 3 30 8s16 12 21 22l167 336a56 56 0 017 27c0 15-7 29-18 39s-27 17-42 17a50 50 0 01-28-8c-9-6-16-14-21-24L282 498 166 732a57 57 0 01-21 24 50 50 0 01-27 8 60 60 0 01-42-16 52 52 0 01-19-40c0-9 3-18 7-27z" data-name="Caminho 2"/>
</svg>